<svg xmlns="http://www.w3.org/2000/svg" xmlns:xlink="http://www.w3.org/1999/xlink" width="500" zoomAndPan="magnify" viewBox="0 0 375 374.999991" height="500" preserveAspectRatio="xMidYMid meet" version="1.0"><defs><g/></defs><rect x="-37.5" width="450" fill="#ffffff" y="-37.499999" height="449.999989" fill-opacity="1"/><rect x="-37.5" width="450" fill="#020202" y="-37.499999" height="449.999989" fill-opacity="1"/><rect x="-37.5" width="450" fill="#ffffff" y="-37.499999" height="449.999989" fill-opacity="1"/><rect x="-37.5" width="450" fill="#020202" y="-37.499999" height="449.999989" fill-opacity="1"/><path fill="#1ed660" d="M 187.445312 262.726562 C 120.738281 263.226562 63.84375 208.488281 64.675781 138.4375 C 65.507812 71.386719 120.570312 16.476562 189.273438 17.476562 C 257.3125 18.472656 311.378906 74.878906 309.882812 142.597656 C 308.71875 208.984375 254.320312 263.0625 187.445312 262.726562 Z M 170.976562 82.367188 C 159.5 82.367188 149.351562 83.03125 139.371094 84.195312 C 129.722656 85.359375 120.238281 87.191406 110.921875 90.019531 C 105.765625 91.683594 102.105469 96.84375 102.773438 101.667969 C 103.769531 109.652344 110.425781 113.980469 118.242188 111.648438 C 126.726562 109.15625 135.210938 107.492188 144.027344 106.492188 C 156.335938 104.996094 168.648438 104.660156 180.957031 105.328125 C 192.269531 105.828125 203.582031 107.15625 214.726562 109.488281 C 230.863281 112.816406 246.335938 117.972656 260.640625 126.292969 C 265.132812 128.953125 270.953125 127.789062 274.449219 123.796875 C 279.273438 118.472656 278.109375 110.152344 271.785156 106.324219 C 262.804688 100.835938 253.15625 96.675781 243.007812 93.347656 C 219.050781 85.695312 194.433594 82.53125 170.976562 82.367188 Z M 166.484375 143.761719 C 174.96875 143.761719 183.285156 144.429688 191.605469 145.59375 C 210.734375 148.421875 228.867188 154.078125 245.503906 164.0625 C 247.167969 165.058594 248.996094 165.558594 250.992188 165.394531 C 255.316406 165.058594 258.644531 162.230469 259.644531 158.070312 C 260.640625 153.910156 258.976562 149.917969 255.152344 147.589844 C 245.835938 141.933594 235.855469 137.441406 225.375 133.945312 C 203.25 126.625 180.625 123.628906 157.335938 124.792969 C 144.027344 125.460938 130.886719 127.625 118.078125 131.449219 C 112.753906 133.113281 109.925781 138.273438 111.421875 143.429688 C 112.917969 148.421875 118.242188 151.25 123.398438 149.753906 C 137.539062 145.59375 151.847656 143.761719 166.484375 143.761719 Z M 168.316406 164.726562 C 164.820312 164.726562 161.496094 164.894531 158 165.058594 C 145.855469 165.726562 133.878906 167.554688 121.902344 170.382812 C 119.40625 170.882812 117.578125 172.546875 116.578125 174.875 C 115.414062 177.707031 115.746094 180.367188 117.742188 182.53125 C 119.90625 185.191406 122.734375 185.691406 126.0625 185.027344 C 141.699219 181.53125 157.335938 179.535156 173.304688 180.035156 C 181.289062 180.367188 189.273438 181.199219 197.09375 182.863281 C 209.738281 185.523438 221.714844 190.183594 232.859375 196.839844 C 236.6875 199.167969 241.175781 198.003906 243.339844 194.34375 C 245.667969 190.683594 244.503906 186.191406 240.511719 183.695312 C 237.183594 181.699219 233.691406 179.703125 230.03125 178.039062 C 210.570312 168.554688 189.941406 164.726562 168.316406 164.726562 Z M 168.316406 164.726562 " fill-opacity="1" fill-rule="nonzero"/><path fill="#020202" d="M 170.976562 82.367188 C 194.433594 82.53125 219.050781 85.695312 242.839844 93.679688 C 252.820312 97.007812 262.472656 101.167969 271.621094 106.660156 C 277.941406 110.484375 279.105469 118.636719 274.28125 124.128906 C 270.789062 127.957031 265.132812 129.121094 260.472656 126.625 C 246.167969 118.304688 230.699219 113.148438 214.5625 109.820312 C 203.414062 107.492188 192.101562 106.324219 180.792969 105.660156 C 168.480469 104.996094 156.171875 105.328125 143.859375 106.824219 C 135.210938 107.824219 126.558594 109.320312 118.078125 111.984375 C 110.425781 114.3125 103.605469 109.984375 102.605469 102 C 101.941406 97.175781 105.601562 91.851562 110.757812 90.351562 C 120.074219 87.523438 129.554688 85.695312 139.203125 84.527344 C 149.351562 83.03125 159.332031 82.367188 170.976562 82.367188 Z M 170.976562 82.367188 " fill-opacity="1" fill-rule="nonzero"/><path fill="#020202" d="M 166.484375 143.761719 C 151.847656 143.761719 137.539062 145.59375 123.398438 149.753906 C 118.242188 151.25 112.917969 148.585938 111.421875 143.429688 C 109.925781 138.273438 112.753906 133.113281 118.078125 131.449219 C 130.886719 127.625 144.027344 125.460938 157.335938 124.792969 C 180.625 123.628906 203.25 126.625 225.375 133.945312 C 235.855469 137.441406 245.667969 141.933594 255.152344 147.589844 C 258.976562 149.917969 260.640625 153.910156 259.644531 158.070312 C 258.644531 162.066406 255.316406 164.894531 250.992188 165.394531 C 248.996094 165.558594 247.167969 165.058594 245.503906 164.0625 C 228.867188 154.078125 210.734375 148.421875 191.605469 145.59375 C 183.285156 144.429688 174.96875 143.761719 166.484375 143.761719 Z M 166.484375 143.761719 " fill-opacity="1" fill-rule="nonzero"/><path fill="#020202" d="M 168.316406 164.726562 C 189.941406 164.726562 210.570312 168.71875 230.199219 178.039062 C 233.859375 179.703125 237.351562 181.699219 240.679688 183.695312 C 244.671875 186.023438 245.835938 190.515625 243.507812 194.34375 C 241.34375 198.003906 236.851562 199.167969 233.027344 196.839844 C 221.878906 190.183594 210.070312 185.523438 197.261719 182.863281 C 189.441406 181.199219 181.457031 180.367188 173.472656 180.035156 C 157.5 179.535156 141.699219 181.53125 126.226562 185.027344 C 122.902344 185.691406 120.074219 185.191406 117.910156 182.53125 C 115.914062 180.199219 115.582031 177.539062 116.746094 174.875 C 117.742188 172.546875 119.574219 171.050781 122.070312 170.382812 C 133.878906 167.722656 145.855469 165.726562 158.167969 165.058594 C 161.496094 164.726562 164.820312 164.5625 168.316406 164.726562 Z M 168.316406 164.726562 " fill-opacity="1" fill-rule="nonzero"/><g fill="#1ed660" fill-opacity="1"><g transform="translate(144.070446, 303.097305)"><g><path d="M 10.265625 -14.0625 C 11.523438 -14.0625 12.664062 -13.769531 13.6875 -13.1875 C 14.71875 -12.613281 15.535156 -11.785156 16.140625 -10.703125 C 16.753906 -9.628906 17.0625 -8.375 17.0625 -6.9375 C 17.0625 -5.507812 16.753906 -4.25 16.140625 -3.15625 C 15.535156 -2.070312 14.71875 -1.234375 13.6875 -0.640625 C 12.664062 -0.0546875 11.523438 0.234375 10.265625 0.234375 C 8.441406 0.234375 7.078125 -0.300781 6.171875 -1.375 L 6.171875 0 L 1.5625 0 L 1.5625 -18.9375 L 6.40625 -18.9375 L 6.40625 -12.640625 C 7.34375 -13.585938 8.628906 -14.0625 10.265625 -14.0625 Z M 9.25 -3.625 C 10.09375 -3.625 10.785156 -3.914062 11.328125 -4.5 C 11.878906 -5.09375 12.15625 -5.90625 12.15625 -6.9375 C 12.15625 -7.957031 11.878906 -8.757812 11.328125 -9.34375 C 10.785156 -9.925781 10.09375 -10.21875 9.25 -10.21875 C 8.394531 -10.21875 7.691406 -9.925781 7.140625 -9.34375 C 6.597656 -8.757812 6.328125 -7.957031 6.328125 -6.9375 C 6.328125 -5.90625 6.597656 -5.09375 7.140625 -4.5 C 7.691406 -3.914062 8.394531 -3.625 9.25 -3.625 Z M 9.25 -3.625 "/></g></g></g><g fill="#1ed660" fill-opacity="1"><g transform="translate(161.809188, 303.097305)"><g><path d="M 16.109375 -13.84375 L 16.109375 0 L 11.484375 0 L 11.484375 -1.484375 C 10.972656 -0.921875 10.359375 -0.492188 9.640625 -0.203125 C 8.929688 0.0859375 8.175781 0.234375 7.375 0.234375 C 5.59375 0.234375 4.164062 -0.289062 3.09375 -1.34375 C 2.03125 -2.40625 1.5 -3.992188 1.5 -6.109375 L 1.5 -13.84375 L 6.359375 -13.84375 L 6.359375 -6.890625 C 6.359375 -5.859375 6.550781 -5.101562 6.9375 -4.625 C 7.332031 -4.144531 7.90625 -3.90625 8.65625 -3.90625 C 9.414062 -3.90625 10.039062 -4.171875 10.53125 -4.703125 C 11.019531 -5.242188 11.265625 -6.066406 11.265625 -7.171875 L 11.265625 -13.84375 Z M 16.109375 -13.84375 "/></g></g></g><g fill="#1ed660" fill-opacity="1"><g transform="translate(179.471357, 303.097305)"><g><path d="M 16.265625 -18.9375 L 16.265625 0 L 11.640625 0 L 11.640625 -1.375 C 10.742188 -0.300781 9.390625 0.234375 7.578125 0.234375 C 6.316406 0.234375 5.164062 -0.0546875 4.125 -0.640625 C 3.09375 -1.234375 2.273438 -2.070312 1.671875 -3.15625 C 1.066406 -4.25 0.765625 -5.507812 0.765625 -6.9375 C 0.765625 -8.375 1.066406 -9.628906 1.671875 -10.703125 C 2.273438 -11.785156 3.09375 -12.613281 4.125 -13.1875 C 5.164062 -13.769531 6.316406 -14.0625 7.578125 -14.0625 C 9.234375 -14.0625 10.507812 -13.585938 11.40625 -12.640625 L 11.40625 -18.9375 Z M 8.609375 -3.625 C 9.441406 -3.625 10.128906 -3.914062 10.671875 -4.5 C 11.210938 -5.09375 11.484375 -5.90625 11.484375 -6.9375 C 11.484375 -7.957031 11.210938 -8.757812 10.671875 -9.34375 C 10.140625 -9.925781 9.453125 -10.21875 8.609375 -10.21875 C 7.753906 -10.21875 7.050781 -9.925781 6.5 -9.34375 C 5.957031 -8.757812 5.6875 -7.957031 5.6875 -6.9375 C 5.6875 -5.90625 5.957031 -5.09375 6.5 -4.5 C 7.050781 -3.914062 7.753906 -3.625 8.609375 -3.625 Z M 8.609375 -3.625 "/></g></g></g><g fill="#1ed660" fill-opacity="1"><g transform="translate(197.28666, 303.097305)"><g><path d="M 16.265625 -18.9375 L 16.265625 0 L 11.640625 0 L 11.640625 -1.375 C 10.742188 -0.300781 9.390625 0.234375 7.578125 0.234375 C 6.316406 0.234375 5.164062 -0.0546875 4.125 -0.640625 C 3.09375 -1.234375 2.273438 -2.070312 1.671875 -3.15625 C 1.066406 -4.25 0.765625 -5.507812 0.765625 -6.9375 C 0.765625 -8.375 1.066406 -9.628906 1.671875 -10.703125 C 2.273438 -11.785156 3.09375 -12.613281 4.125 -13.1875 C 5.164062 -13.769531 6.316406 -14.0625 7.578125 -14.0625 C 9.234375 -14.0625 10.507812 -13.585938 11.40625 -12.640625 L 11.40625 -18.9375 Z M 8.609375 -3.625 C 9.441406 -3.625 10.128906 -3.914062 10.671875 -4.5 C 11.210938 -5.09375 11.484375 -5.90625 11.484375 -6.9375 C 11.484375 -7.957031 11.210938 -8.757812 10.671875 -9.34375 C 10.140625 -9.925781 9.453125 -10.21875 8.609375 -10.21875 C 7.753906 -10.21875 7.050781 -9.925781 6.5 -9.34375 C 5.957031 -8.757812 5.6875 -7.957031 5.6875 -6.9375 C 5.6875 -5.90625 5.957031 -5.09375 6.5 -4.5 C 7.050781 -3.914062 7.753906 -3.625 8.609375 -3.625 Z M 8.609375 -3.625 "/></g></g></g><g fill="#1ed660" fill-opacity="1"><g transform="translate(215.101962, 303.097305)"><g><path d="M 16.140625 -13.84375 L 10.15625 0.5625 C 9.457031 2.257812 8.609375 3.453125 7.609375 4.140625 C 6.609375 4.835938 5.382812 5.1875 3.9375 5.1875 C 3.195312 5.1875 2.457031 5.070312 1.71875 4.84375 C 0.976562 4.613281 0.378906 4.3125 -0.078125 3.9375 L 1.609375 0.53125 C 1.878906 0.789062 2.207031 0.992188 2.59375 1.140625 C 2.976562 1.285156 3.363281 1.359375 3.75 1.359375 C 4.207031 1.359375 4.585938 1.265625 4.890625 1.078125 C 5.191406 0.890625 5.441406 0.585938 5.640625 0.171875 L -0.28125 -13.84375 L 4.703125 -13.84375 L 8.09375 -5.390625 L 11.515625 -13.84375 Z M 16.140625 -13.84375 "/></g></g></g><g fill="#1ed660" fill-opacity="1"><g transform="translate(66.527482, 338.347303)"><g><path d="M 10.265625 -14.0625 C 11.523438 -14.0625 12.664062 -13.769531 13.6875 -13.1875 C 14.71875 -12.601562 15.535156 -11.769531 16.140625 -10.6875 C 16.753906 -9.601562 17.0625 -8.347656 17.0625 -6.921875 C 17.0625 -5.492188 16.753906 -4.238281 16.140625 -3.15625 C 15.535156 -2.070312 14.71875 -1.234375 13.6875 -0.640625 C 12.664062 -0.0546875 11.523438 0.234375 10.265625 0.234375 C 8.648438 0.234375 7.363281 -0.25 6.40625 -1.21875 L 6.40625 4.953125 L 1.5625 4.953125 L 1.5625 -13.84375 L 6.171875 -13.84375 L 6.171875 -12.453125 C 7.078125 -13.523438 8.441406 -14.0625 10.265625 -14.0625 Z M 9.25 -3.625 C 10.09375 -3.625 10.785156 -3.914062 11.328125 -4.5 C 11.878906 -5.09375 12.15625 -5.898438 12.15625 -6.921875 C 12.15625 -7.941406 11.878906 -8.742188 11.328125 -9.328125 C 10.785156 -9.921875 10.09375 -10.21875 9.25 -10.21875 C 8.394531 -10.21875 7.691406 -9.921875 7.140625 -9.328125 C 6.597656 -8.742188 6.328125 -7.941406 6.328125 -6.921875 C 6.328125 -5.898438 6.597656 -5.09375 7.140625 -4.5 C 7.691406 -3.914062 8.394531 -3.625 9.25 -3.625 Z M 9.25 -3.625 "/></g></g></g><g fill="#1ed660" fill-opacity="1"><g transform="translate(84.266224, 338.347303)"><g><path d="M 1.5625 -18.9375 L 6.40625 -18.9375 L 6.40625 0 L 1.5625 0 Z M 1.5625 -18.9375 "/></g></g></g><g fill="#1ed660" fill-opacity="1"><g transform="translate(92.255035, 338.347303)"><g><path d="M 7.453125 -14.0625 C 9.753906 -14.0625 11.507812 -13.535156 12.71875 -12.484375 C 13.925781 -11.441406 14.53125 -9.84375 14.53125 -7.6875 L 14.53125 0 L 10.015625 0 L 10.015625 -1.78125 C 9.316406 -0.4375 7.953125 0.234375 5.921875 0.234375 C 4.847656 0.234375 3.921875 0.046875 3.140625 -0.328125 C 2.359375 -0.703125 1.765625 -1.207031 1.359375 -1.84375 C 0.960938 -2.488281 0.765625 -3.21875 0.765625 -4.03125 C 0.765625 -5.34375 1.265625 -6.359375 2.265625 -7.078125 C 3.273438 -7.804688 4.828125 -8.171875 6.921875 -8.171875 L 9.671875 -8.171875 C 9.585938 -9.628906 8.609375 -10.359375 6.734375 -10.359375 C 6.078125 -10.359375 5.40625 -10.253906 4.71875 -10.046875 C 4.039062 -9.835938 3.460938 -9.546875 2.984375 -9.171875 L 1.359375 -12.453125 C 2.117188 -12.960938 3.046875 -13.359375 4.140625 -13.640625 C 5.242188 -13.921875 6.347656 -14.0625 7.453125 -14.0625 Z M 7.28125 -2.828125 C 7.84375 -2.828125 8.332031 -2.960938 8.75 -3.234375 C 9.175781 -3.515625 9.484375 -3.914062 9.671875 -4.4375 L 9.671875 -5.640625 L 7.578125 -5.640625 C 6.171875 -5.640625 5.46875 -5.171875 5.46875 -4.234375 C 5.46875 -3.804688 5.628906 -3.460938 5.953125 -3.203125 C 6.273438 -2.953125 6.71875 -2.828125 7.28125 -2.828125 Z M 7.28125 -2.828125 "/></g></g></g><g fill="#1ed660" fill-opacity="1"><g transform="translate(108.283709, 338.347303)"><g><path d="M 16.140625 -13.84375 L 10.15625 0.5625 C 9.457031 2.257812 8.609375 3.453125 7.609375 4.140625 C 6.609375 4.835938 5.382812 5.1875 3.9375 5.1875 C 3.195312 5.1875 2.457031 5.070312 1.71875 4.84375 C 0.976562 4.613281 0.378906 4.3125 -0.078125 3.9375 L 1.609375 0.53125 C 1.878906 0.789062 2.207031 0.992188 2.59375 1.140625 C 2.976562 1.285156 3.363281 1.359375 3.75 1.359375 C 4.207031 1.359375 4.585938 1.265625 4.890625 1.078125 C 5.191406 0.890625 5.441406 0.585938 5.640625 0.171875 L -0.28125 -13.84375 L 4.703125 -13.84375 L 8.09375 -5.390625 L 11.515625 -13.84375 Z M 16.140625 -13.84375 "/></g></g></g><g fill="#1ed660" fill-opacity="1"><g transform="translate(124.108197, 338.347303)"><g><path d="M 1.5625 -18.9375 L 6.40625 -18.9375 L 6.40625 0 L 1.5625 0 Z M 1.5625 -18.9375 "/></g></g></g><g fill="#1ed660" fill-opacity="1"><g transform="translate(132.097008, 338.347303)"><g><path d="M 1.5625 -13.84375 L 6.40625 -13.84375 L 6.40625 0 L 1.5625 0 Z M 3.984375 -15.375 C 3.097656 -15.375 2.378906 -15.617188 1.828125 -16.109375 C 1.285156 -16.597656 1.015625 -17.210938 1.015625 -17.953125 C 1.015625 -18.679688 1.285156 -19.289062 1.828125 -19.78125 C 2.378906 -20.28125 3.097656 -20.53125 3.984375 -20.53125 C 4.867188 -20.53125 5.582031 -20.296875 6.125 -19.828125 C 6.664062 -19.359375 6.9375 -18.757812 6.9375 -18.03125 C 6.9375 -17.257812 6.664062 -16.625 6.125 -16.125 C 5.582031 -15.625 4.867188 -15.375 3.984375 -15.375 Z M 3.984375 -15.375 "/></g></g></g><g fill="#1ed660" fill-opacity="1"><g transform="translate(140.085819, 338.347303)"><g><path d="M 6.59375 0.234375 C 5.425781 0.234375 4.28125 0.101562 3.15625 -0.15625 C 2.039062 -0.425781 1.140625 -0.773438 0.453125 -1.203125 L 1.921875 -4.515625 C 2.546875 -4.128906 3.289062 -3.820312 4.15625 -3.59375 C 5.03125 -3.363281 5.890625 -3.25 6.734375 -3.25 C 7.523438 -3.25 8.082031 -3.328125 8.40625 -3.484375 C 8.738281 -3.648438 8.90625 -3.882812 8.90625 -4.1875 C 8.90625 -4.488281 8.703125 -4.703125 8.296875 -4.828125 C 7.898438 -4.960938 7.269531 -5.085938 6.40625 -5.203125 C 5.300781 -5.335938 4.359375 -5.515625 3.578125 -5.734375 C 2.804688 -5.960938 2.140625 -6.375 1.578125 -6.96875 C 1.015625 -7.5625 0.734375 -8.394531 0.734375 -9.46875 C 0.734375 -10.351562 1 -11.140625 1.53125 -11.828125 C 2.0625 -12.523438 2.832031 -13.070312 3.84375 -13.46875 C 4.851562 -13.863281 6.066406 -14.0625 7.484375 -14.0625 C 8.484375 -14.0625 9.476562 -13.957031 10.46875 -13.75 C 11.457031 -13.550781 12.28125 -13.265625 12.9375 -12.890625 L 11.484375 -9.59375 C 10.265625 -10.28125 8.9375 -10.625 7.5 -10.625 C 6.738281 -10.625 6.175781 -10.53125 5.8125 -10.34375 C 5.457031 -10.164062 5.28125 -9.9375 5.28125 -9.65625 C 5.28125 -9.332031 5.472656 -9.101562 5.859375 -8.96875 C 6.253906 -8.84375 6.90625 -8.710938 7.8125 -8.578125 C 8.945312 -8.410156 9.890625 -8.210938 10.640625 -7.984375 C 11.390625 -7.765625 12.039062 -7.359375 12.59375 -6.765625 C 13.144531 -6.179688 13.421875 -5.363281 13.421875 -4.3125 C 13.421875 -3.445312 13.15625 -2.664062 12.625 -1.96875 C 12.101562 -1.28125 11.328125 -0.738281 10.296875 -0.34375 C 9.265625 0.0390625 8.03125 0.234375 6.59375 0.234375 Z M 6.59375 0.234375 "/></g></g></g><g fill="#1ed660" fill-opacity="1"><g transform="translate(154.047096, 338.347303)"><g><path d="M 11.109375 -0.5625 C 10.703125 -0.300781 10.203125 -0.101562 9.609375 0.03125 C 9.023438 0.164062 8.398438 0.234375 7.734375 0.234375 C 5.929688 0.234375 4.546875 -0.207031 3.578125 -1.09375 C 2.609375 -1.976562 2.125 -3.300781 2.125 -5.0625 L 2.125 -9.703125 L 0.109375 -9.703125 L 0.109375 -13.328125 L 2.125 -13.328125 L 2.125 -16.921875 L 6.96875 -16.921875 L 6.96875 -13.328125 L 10.140625 -13.328125 L 10.140625 -9.703125 L 6.96875 -9.703125 L 6.96875 -5.109375 C 6.96875 -4.609375 7.097656 -4.21875 7.359375 -3.9375 C 7.628906 -3.65625 7.984375 -3.515625 8.421875 -3.515625 C 8.984375 -3.515625 9.476562 -3.660156 9.90625 -3.953125 Z M 11.109375 -0.5625 "/></g></g></g><g fill="#1ed660" fill-opacity="1"><g transform="translate(165.456042, 338.347303)"><g/></g></g><g fill="#1ed660" fill-opacity="1"><g transform="translate(172.883337, 338.347303)"><g><path d="M 16.4375 -13.84375 L 16.4375 -2.53125 C 16.4375 0.0390625 15.738281 1.96875 14.34375 3.25 C 12.945312 4.539062 10.941406 5.1875 8.328125 5.1875 C 6.960938 5.1875 5.679688 5.03125 4.484375 4.71875 C 3.296875 4.414062 2.285156 3.96875 1.453125 3.375 L 3.21875 -0.03125 C 3.78125 0.425781 4.488281 0.785156 5.34375 1.046875 C 6.207031 1.316406 7.054688 1.453125 7.890625 1.453125 C 9.160156 1.453125 10.09375 1.171875 10.6875 0.609375 C 11.289062 0.046875 11.59375 -0.785156 11.59375 -1.890625 L 11.59375 -2.34375 C 10.65625 -1.257812 9.285156 -0.71875 7.484375 -0.71875 C 6.253906 -0.71875 5.117188 -0.992188 4.078125 -1.546875 C 3.046875 -2.097656 2.222656 -2.878906 1.609375 -3.890625 C 0.992188 -4.898438 0.6875 -6.070312 0.6875 -7.40625 C 0.6875 -8.71875 0.992188 -9.878906 1.609375 -10.890625 C 2.222656 -11.898438 3.046875 -12.679688 4.078125 -13.234375 C 5.117188 -13.785156 6.253906 -14.0625 7.484375 -14.0625 C 9.453125 -14.0625 10.898438 -13.425781 11.828125 -12.15625 L 11.828125 -13.84375 Z M 8.625 -4.5625 C 9.5 -4.5625 10.21875 -4.828125 10.78125 -5.359375 C 11.351562 -5.890625 11.640625 -6.570312 11.640625 -7.40625 C 11.640625 -8.238281 11.359375 -8.914062 10.796875 -9.4375 C 10.234375 -9.957031 9.507812 -10.21875 8.625 -10.21875 C 7.738281 -10.21875 7.007812 -9.957031 6.4375 -9.4375 C 5.875 -8.914062 5.59375 -8.238281 5.59375 -7.40625 C 5.59375 -6.570312 5.878906 -5.890625 6.453125 -5.359375 C 7.035156 -4.828125 7.757812 -4.5625 8.625 -4.5625 Z M 8.625 -4.5625 "/></g></g></g><g fill="#1ed660" fill-opacity="1"><g transform="translate(190.877305, 338.347303)"><g><path d="M 15.703125 -6.890625 C 15.703125 -6.859375 15.675781 -6.457031 15.625 -5.6875 L 5.5625 -5.6875 C 5.769531 -4.976562 6.164062 -4.429688 6.75 -4.046875 C 7.34375 -3.660156 8.082031 -3.46875 8.96875 -3.46875 C 9.625 -3.46875 10.191406 -3.5625 10.671875 -3.75 C 11.160156 -3.9375 11.65625 -4.242188 12.15625 -4.671875 L 14.703125 -2.015625 C 13.359375 -0.515625 11.394531 0.234375 8.8125 0.234375 C 7.195312 0.234375 5.773438 -0.0703125 4.546875 -0.6875 C 3.316406 -1.300781 2.363281 -2.148438 1.6875 -3.234375 C 1.019531 -4.328125 0.6875 -5.5625 0.6875 -6.9375 C 0.6875 -8.300781 1.015625 -9.523438 1.671875 -10.609375 C 2.328125 -11.691406 3.234375 -12.535156 4.390625 -13.140625 C 5.546875 -13.753906 6.847656 -14.0625 8.296875 -14.0625 C 9.671875 -14.0625 10.921875 -13.773438 12.046875 -13.203125 C 13.171875 -12.640625 14.0625 -11.816406 14.71875 -10.734375 C 15.375 -9.648438 15.703125 -8.367188 15.703125 -6.890625 Z M 8.328125 -10.625 C 7.578125 -10.625 6.945312 -10.410156 6.4375 -9.984375 C 5.9375 -9.554688 5.617188 -8.976562 5.484375 -8.25 L 11.15625 -8.25 C 11.019531 -8.976562 10.703125 -9.554688 10.203125 -9.984375 C 9.703125 -10.410156 9.078125 -10.625 8.328125 -10.625 Z M 8.328125 -10.625 "/></g></g></g><g fill="#1ed660" fill-opacity="1"><g transform="translate(207.263309, 338.347303)"><g><path d="M 10.5625 -14.0625 C 12.289062 -14.0625 13.675781 -13.550781 14.71875 -12.53125 C 15.757812 -11.507812 16.28125 -9.972656 16.28125 -7.921875 L 16.28125 0 L 11.4375 0 L 11.4375 -7.125 C 11.4375 -9.007812 10.679688 -9.953125 9.171875 -9.953125 C 8.335938 -9.953125 7.664062 -9.679688 7.15625 -9.140625 C 6.65625 -8.597656 6.40625 -7.78125 6.40625 -6.6875 L 6.40625 0 L 1.5625 0 L 1.5625 -13.84375 L 6.171875 -13.84375 L 6.171875 -12.328125 C 6.722656 -12.890625 7.375 -13.316406 8.125 -13.609375 C 8.875 -13.910156 9.6875 -14.0625 10.5625 -14.0625 Z M 10.5625 -14.0625 "/></g></g></g><g fill="#1ed660" fill-opacity="1"><g transform="translate(225.027571, 338.347303)"><g><path d="M 15.703125 -6.890625 C 15.703125 -6.859375 15.675781 -6.457031 15.625 -5.6875 L 5.5625 -5.6875 C 5.769531 -4.976562 6.164062 -4.429688 6.75 -4.046875 C 7.34375 -3.660156 8.082031 -3.46875 8.96875 -3.46875 C 9.625 -3.46875 10.191406 -3.5625 10.671875 -3.75 C 11.160156 -3.9375 11.65625 -4.242188 12.15625 -4.671875 L 14.703125 -2.015625 C 13.359375 -0.515625 11.394531 0.234375 8.8125 0.234375 C 7.195312 0.234375 5.773438 -0.0703125 4.546875 -0.6875 C 3.316406 -1.300781 2.363281 -2.148438 1.6875 -3.234375 C 1.019531 -4.328125 0.6875 -5.5625 0.6875 -6.9375 C 0.6875 -8.300781 1.015625 -9.523438 1.671875 -10.609375 C 2.328125 -11.691406 3.234375 -12.535156 4.390625 -13.140625 C 5.546875 -13.753906 6.847656 -14.0625 8.296875 -14.0625 C 9.671875 -14.0625 10.921875 -13.773438 12.046875 -13.203125 C 13.171875 -12.640625 14.0625 -11.816406 14.71875 -10.734375 C 15.375 -9.648438 15.703125 -8.367188 15.703125 -6.890625 Z M 8.328125 -10.625 C 7.578125 -10.625 6.945312 -10.410156 6.4375 -9.984375 C 5.9375 -9.554688 5.617188 -8.976562 5.484375 -8.25 L 11.15625 -8.25 C 11.019531 -8.976562 10.703125 -9.554688 10.203125 -9.984375 C 9.703125 -10.410156 9.078125 -10.625 8.328125 -10.625 Z M 8.328125 -10.625 "/></g></g></g><g fill="#1ed660" fill-opacity="1"><g transform="translate(241.413575, 338.347303)"><g><path d="M 6.171875 -12.171875 C 6.671875 -12.804688 7.316406 -13.28125 8.109375 -13.59375 C 8.898438 -13.90625 9.804688 -14.0625 10.828125 -14.0625 L 10.828125 -9.703125 C 10.378906 -9.753906 10.015625 -9.78125 9.734375 -9.78125 C 8.691406 -9.78125 7.875 -9.5 7.28125 -8.9375 C 6.695312 -8.375 6.40625 -7.515625 6.40625 -6.359375 L 6.40625 0 L 1.5625 0 L 1.5625 -13.84375 L 6.171875 -13.84375 Z M 6.171875 -12.171875 "/></g></g></g><g fill="#1ed660" fill-opacity="1"><g transform="translate(252.720429, 338.347303)"><g><path d="M 7.453125 -14.0625 C 9.753906 -14.0625 11.507812 -13.535156 12.71875 -12.484375 C 13.925781 -11.441406 14.53125 -9.84375 14.53125 -7.6875 L 14.53125 0 L 10.015625 0 L 10.015625 -1.78125 C 9.316406 -0.4375 7.953125 0.234375 5.921875 0.234375 C 4.847656 0.234375 3.921875 0.046875 3.140625 -0.328125 C 2.359375 -0.703125 1.765625 -1.207031 1.359375 -1.84375 C 0.960938 -2.488281 0.765625 -3.21875 0.765625 -4.03125 C 0.765625 -5.34375 1.265625 -6.359375 2.265625 -7.078125 C 3.273438 -7.804688 4.828125 -8.171875 6.921875 -8.171875 L 9.671875 -8.171875 C 9.585938 -9.628906 8.609375 -10.359375 6.734375 -10.359375 C 6.078125 -10.359375 5.40625 -10.253906 4.71875 -10.046875 C 4.039062 -9.835938 3.460938 -9.546875 2.984375 -9.171875 L 1.359375 -12.453125 C 2.117188 -12.960938 3.046875 -13.359375 4.140625 -13.640625 C 5.242188 -13.921875 6.347656 -14.0625 7.453125 -14.0625 Z M 7.28125 -2.828125 C 7.84375 -2.828125 8.332031 -2.960938 8.75 -3.234375 C 9.175781 -3.515625 9.484375 -3.914062 9.671875 -4.4375 L 9.671875 -5.640625 L 7.578125 -5.640625 C 6.171875 -5.640625 5.46875 -5.171875 5.46875 -4.234375 C 5.46875 -3.804688 5.628906 -3.460938 5.953125 -3.203125 C 6.273438 -2.953125 6.71875 -2.828125 7.28125 -2.828125 Z M 7.28125 -2.828125 "/></g></g></g><g fill="#1ed660" fill-opacity="1"><g transform="translate(268.749103, 338.347303)"><g><path d="M 11.109375 -0.5625 C 10.703125 -0.300781 10.203125 -0.101562 9.609375 0.03125 C 9.023438 0.164062 8.398438 0.234375 7.734375 0.234375 C 5.929688 0.234375 4.546875 -0.207031 3.578125 -1.09375 C 2.609375 -1.976562 2.125 -3.300781 2.125 -5.0625 L 2.125 -9.703125 L 0.109375 -9.703125 L 0.109375 -13.328125 L 2.125 -13.328125 L 2.125 -16.921875 L 6.96875 -16.921875 L 6.96875 -13.328125 L 10.140625 -13.328125 L 10.140625 -9.703125 L 6.96875 -9.703125 L 6.96875 -5.109375 C 6.96875 -4.609375 7.097656 -4.21875 7.359375 -3.9375 C 7.628906 -3.65625 7.984375 -3.515625 8.421875 -3.515625 C 8.984375 -3.515625 9.476562 -3.660156 9.90625 -3.953125 Z M 11.109375 -0.5625 "/></g></g></g><g fill="#1ed660" fill-opacity="1"><g transform="translate(280.158038, 338.347303)"><g><path d="M 8.5 0.234375 C 7.019531 0.234375 5.679688 -0.0703125 4.484375 -0.6875 C 3.296875 -1.300781 2.363281 -2.148438 1.6875 -3.234375 C 1.019531 -4.328125 0.6875 -5.5625 0.6875 -6.9375 C 0.6875 -8.300781 1.019531 -9.523438 1.6875 -10.609375 C 2.363281 -11.703125 3.289062 -12.550781 4.46875 -13.15625 C 5.65625 -13.757812 7 -14.0625 8.5 -14.0625 C 10 -14.0625 11.34375 -13.757812 12.53125 -13.15625 C 13.726562 -12.550781 14.65625 -11.707031 15.3125 -10.625 C 15.976562 -9.550781 16.3125 -8.320312 16.3125 -6.9375 C 16.3125 -5.5625 15.976562 -4.328125 15.3125 -3.234375 C 14.65625 -2.148438 13.726562 -1.300781 12.53125 -0.6875 C 11.34375 -0.0703125 10 0.234375 8.5 0.234375 Z M 8.5 -3.625 C 9.351562 -3.625 10.050781 -3.914062 10.59375 -4.5 C 11.132812 -5.09375 11.40625 -5.90625 11.40625 -6.9375 C 11.40625 -7.957031 11.132812 -8.757812 10.59375 -9.34375 C 10.050781 -9.925781 9.351562 -10.21875 8.5 -10.21875 C 7.644531 -10.21875 6.945312 -9.925781 6.40625 -9.34375 C 5.863281 -8.757812 5.59375 -7.957031 5.59375 -6.9375 C 5.59375 -5.90625 5.863281 -5.09375 6.40625 -4.5 C 6.945312 -3.914062 7.644531 -3.625 8.5 -3.625 Z M 8.5 -3.625 "/></g></g></g><g fill="#1ed660" fill-opacity="1"><g transform="translate(297.156587, 338.347303)"><g><path d="M 6.171875 -12.171875 C 6.671875 -12.804688 7.316406 -13.28125 8.109375 -13.59375 C 8.898438 -13.90625 9.804688 -14.0625 10.828125 -14.0625 L 10.828125 -9.703125 C 10.378906 -9.753906 10.015625 -9.78125 9.734375 -9.78125 C 8.691406 -9.78125 7.875 -9.5 7.28125 -8.9375 C 6.695312 -8.375 6.40625 -7.515625 6.40625 -6.359375 L 6.40625 0 L 1.5625 0 L 1.5625 -13.84375 L 6.171875 -13.84375 Z M 6.171875 -12.171875 "/></g></g></g></svg>