<svg xmlns="http://www.w3.org/2000/svg" xmlns:xlink="http://www.w3.org/1999/xlink" width="500" zoomAndPan="magnify" viewBox="0 0 375 374.999991" height="500" preserveAspectRatio="xMidYMid meet" version="1.0"><defs><g/></defs><rect x="-37.5" width="450" fill="#ffffff" y="-37.499999" height="449.999989" fill-opacity="1"/><rect x="-37.5" width="450" fill="#020202" y="-37.499999" height="449.999989" fill-opacity="1"/><rect x="-37.5" width="450" fill="#ffffff" y="-37.499999" height="449.999989" fill-opacity="1"/><rect x="-37.5" width="450" fill="#020202" y="-37.499999" height="449.999989" fill-opacity="1"/><path fill="#1ed660" d="M 187.445312 262.726562 C 120.738281 263.226562 63.84375 208.488281 64.675781 138.4375 C 65.507812 71.386719 120.570312 16.476562 189.273438 17.476562 C 257.3125 18.472656 311.378906 74.878906 309.882812 142.597656 C 308.71875 208.984375 254.320312 263.0625 187.445312 262.726562 Z M 170.976562 82.367188 C 159.5 82.367188 149.351562 83.03125 139.371094 84.195312 C 129.722656 85.359375 120.238281 87.191406 110.921875 90.019531 C 105.765625 91.683594 102.105469 96.84375 102.773438 101.667969 C 103.769531 109.652344 110.425781 113.980469 118.242188 111.648438 C 126.726562 109.15625 135.210938 107.492188 144.027344 106.492188 C 156.335938 104.996094 168.648438 104.660156 180.957031 105.328125 C 192.269531 105.828125 203.582031 107.15625 214.726562 109.488281 C 230.863281 112.816406 246.335938 117.972656 260.640625 126.292969 C 265.132812 128.953125 270.953125 127.789062 274.449219 123.796875 C 279.273438 118.472656 278.109375 110.152344 271.785156 106.324219 C 262.804688 100.835938 253.15625 96.675781 243.007812 93.347656 C 219.050781 85.695312 194.433594 82.53125 170.976562 82.367188 Z M 166.484375 143.761719 C 174.96875 143.761719 183.285156 144.429688 191.605469 145.59375 C 210.734375 148.421875 228.867188 154.078125 245.503906 164.0625 C 247.167969 165.058594 248.996094 165.558594 250.992188 165.394531 C 255.316406 165.058594 258.644531 162.230469 259.644531 158.070312 C 260.640625 153.910156 258.976562 149.917969 255.152344 147.589844 C 245.835938 141.933594 235.855469 137.441406 225.375 133.945312 C 203.25 126.625 180.625 123.628906 157.335938 124.792969 C 144.027344 125.460938 130.886719 127.625 118.078125 131.449219 C 112.753906 133.113281 109.925781 138.273438 111.421875 143.429688 C 112.917969 148.421875 118.242188 151.25 123.398438 149.753906 C 137.539062 145.59375 151.847656 143.761719 166.484375 143.761719 Z M 168.316406 164.726562 C 164.820312 164.726562 161.496094 164.894531 158 165.058594 C 145.855469 165.726562 133.878906 167.554688 121.902344 170.382812 C 119.40625 170.882812 117.578125 172.546875 116.578125 174.875 C 115.414062 177.707031 115.746094 180.367188 117.742188 182.53125 C 119.90625 185.191406 122.734375 185.691406 126.0625 185.027344 C 141.699219 181.53125 157.335938 179.535156 173.304688 180.035156 C 181.289062 180.367188 189.273438 181.199219 197.09375 182.863281 C 209.738281 185.523438 221.714844 190.183594 232.859375 196.839844 C 236.6875 199.167969 241.175781 198.003906 243.339844 194.34375 C 245.667969 190.683594 244.503906 186.191406 240.511719 183.695312 C 237.183594 181.699219 233.691406 179.703125 230.03125 178.039062 C 210.570312 168.554688 189.941406 164.726562 168.316406 164.726562 Z M 168.316406 164.726562 " fill-opacity="1" fill-rule="nonzero"/><path fill="#020202" d="M 170.976562 82.367188 C 194.433594 82.53125 219.050781 85.695312 242.839844 93.679688 C 252.820312 97.007812 262.472656 101.167969 271.621094 106.660156 C 277.941406 110.484375 279.105469 118.636719 274.28125 124.128906 C 270.789062 127.957031 265.132812 129.121094 260.472656 126.625 C 246.167969 118.304688 230.699219 113.148438 214.5625 109.820312 C 203.414062 107.492188 192.101562 106.324219 180.792969 105.660156 C 168.480469 104.996094 156.171875 105.328125 143.859375 106.824219 C 135.210938 107.824219 126.558594 109.320312 118.078125 111.984375 C 110.425781 114.3125 103.605469 109.984375 102.605469 102 C 101.941406 97.175781 105.601562 91.851562 110.757812 90.351562 C 120.074219 87.523438 129.554688 85.695312 139.203125 84.527344 C 149.351562 83.03125 159.332031 82.367188 170.976562 82.367188 Z M 170.976562 82.367188 " fill-opacity="1" fill-rule="nonzero"/><path fill="#020202" d="M 166.484375 143.761719 C 151.847656 143.761719 137.539062 145.59375 123.398438 149.753906 C 118.242188 151.25 112.917969 148.585938 111.421875 143.429688 C 109.925781 138.273438 112.753906 133.113281 118.078125 131.449219 C 130.886719 127.625 144.027344 125.460938 157.335938 124.792969 C 180.625 123.628906 203.25 126.625 225.375 133.945312 C 235.855469 137.441406 245.667969 141.933594 255.152344 147.589844 C 258.976562 149.917969 260.640625 153.910156 259.644531 158.070312 C 258.644531 162.066406 255.316406 164.894531 250.992188 165.394531 C 248.996094 165.558594 247.167969 165.058594 245.503906 164.0625 C 228.867188 154.078125 210.734375 148.421875 191.605469 145.59375 C 183.285156 144.429688 174.96875 143.761719 166.484375 143.761719 Z M 166.484375 143.761719 " fill-opacity="1" fill-rule="nonzero"/><path fill="#020202" d="M 168.316406 164.726562 C 189.941406 164.726562 210.570312 168.71875 230.199219 178.039062 C 233.859375 179.703125 237.351562 181.699219 240.679688 183.695312 C 244.671875 186.023438 245.835938 190.515625 243.507812 194.34375 C 241.34375 198.003906 236.851562 199.167969 233.027344 196.839844 C 221.878906 190.183594 210.070312 185.523438 197.261719 182.863281 C 189.441406 181.199219 181.457031 180.367188 173.472656 180.035156 C 157.5 179.535156 141.699219 181.53125 126.226562 185.027344 C 122.902344 185.691406 120.074219 185.191406 117.910156 182.53125 C 115.914062 180.199219 115.582031 177.539062 116.746094 174.875 C 117.742188 172.546875 119.574219 171.050781 122.070312 170.382812 C 133.878906 167.722656 145.855469 165.726562 158.167969 165.058594 C 161.496094 164.726562 164.820312 164.5625 168.316406 164.726562 Z M 168.316406 164.726562 " fill-opacity="1" fill-rule="nonzero"/><g fill="#1ed660" fill-opacity="1"><g transform="translate(149.19154, 303.847305)"><g><path d="M 8.53125 -13.6875 C 9.6875 -13.6875 10.734375 -13.382812 11.671875 -12.78125 C 12.609375 -12.1875 13.34375 -11.363281 13.875 -10.3125 C 14.414062 -9.257812 14.6875 -8.066406 14.6875 -6.734375 C 14.6875 -5.410156 14.414062 -4.210938 13.875 -3.140625 C 13.34375 -2.066406 12.609375 -1.234375 11.671875 -0.640625 C 10.734375 -0.046875 9.703125 0.25 8.578125 0.25 C 7.691406 0.25 6.863281 0.0546875 6.09375 -0.328125 C 5.332031 -0.722656 4.710938 -1.207031 4.234375 -1.78125 L 4.234375 -1.046875 C 4.234375 -0.703125 4.117188 -0.410156 3.890625 -0.171875 C 3.660156 0.0546875 3.367188 0.171875 3.015625 0.171875 C 2.671875 0.171875 2.382812 0.0546875 2.15625 -0.171875 C 1.925781 -0.398438 1.8125 -0.691406 1.8125 -1.046875 L 1.8125 -17.671875 C 1.8125 -18.023438 1.921875 -18.316406 2.140625 -18.546875 C 2.359375 -18.773438 2.648438 -18.890625 3.015625 -18.890625 C 3.367188 -18.890625 3.660156 -18.769531 3.890625 -18.53125 C 4.117188 -18.289062 4.234375 -18.003906 4.234375 -17.671875 L 4.234375 -11.4375 C 4.640625 -12.050781 5.234375 -12.578125 6.015625 -13.015625 C 6.804688 -13.460938 7.644531 -13.6875 8.53125 -13.6875 Z M 8.25 -1.984375 C 9.03125 -1.984375 9.734375 -2.191406 10.359375 -2.609375 C 10.992188 -3.035156 11.484375 -3.609375 11.828125 -4.328125 C 12.179688 -5.046875 12.359375 -5.847656 12.359375 -6.734375 C 12.359375 -7.617188 12.179688 -8.421875 11.828125 -9.140625 C 11.484375 -9.859375 10.992188 -10.421875 10.359375 -10.828125 C 9.734375 -11.234375 9.03125 -11.4375 8.25 -11.4375 C 7.445312 -11.4375 6.726562 -11.234375 6.09375 -10.828125 C 5.46875 -10.421875 4.976562 -9.863281 4.625 -9.15625 C 4.28125 -8.445312 4.109375 -7.640625 4.109375 -6.734375 C 4.109375 -5.835938 4.28125 -5.03125 4.625 -4.3125 C 4.976562 -3.601562 5.46875 -3.035156 6.09375 -2.609375 C 6.726562 -2.191406 7.445312 -1.984375 8.25 -1.984375 Z M 8.25 -1.984375 "/></g></g></g><g fill="#1ed660" fill-opacity="1"><g transform="translate(164.862883, 303.847305)"><g><path d="M 11.765625 -13.375 C 12.128906 -13.375 12.425781 -13.253906 12.65625 -13.015625 C 12.882812 -12.773438 13 -12.488281 13 -12.15625 L 13 -5.359375 C 13 -3.585938 12.507812 -2.210938 11.53125 -1.234375 C 10.550781 -0.253906 9.164062 0.234375 7.375 0.234375 C 5.601562 0.234375 4.234375 -0.253906 3.265625 -1.234375 C 2.296875 -2.210938 1.8125 -3.585938 1.8125 -5.359375 L 1.8125 -12.15625 C 1.8125 -12.488281 1.925781 -12.773438 2.15625 -13.015625 C 2.382812 -13.253906 2.671875 -13.375 3.015625 -13.375 C 3.367188 -13.375 3.660156 -13.253906 3.890625 -13.015625 C 4.117188 -12.773438 4.234375 -12.488281 4.234375 -12.15625 L 4.234375 -5.359375 C 4.234375 -3.128906 5.28125 -2.015625 7.375 -2.015625 C 8.414062 -2.015625 9.207031 -2.296875 9.75 -2.859375 C 10.289062 -3.421875 10.5625 -4.253906 10.5625 -5.359375 L 10.5625 -12.15625 C 10.5625 -12.488281 10.675781 -12.773438 10.90625 -13.015625 C 11.144531 -13.253906 11.429688 -13.375 11.765625 -13.375 Z M 11.765625 -13.375 "/></g></g></g><g fill="#1ed660" fill-opacity="1"><g transform="translate(179.666433, 303.847305)"><g><path d="M 12.65625 -18.890625 C 13.019531 -18.890625 13.316406 -18.773438 13.546875 -18.546875 C 13.773438 -18.316406 13.890625 -18.023438 13.890625 -17.671875 L 13.890625 -1.21875 C 13.890625 -0.882812 13.773438 -0.597656 13.546875 -0.359375 C 13.316406 -0.117188 13.019531 0 12.65625 0 C 12.300781 0 12.015625 -0.113281 11.796875 -0.34375 C 11.578125 -0.570312 11.46875 -0.863281 11.46875 -1.21875 L 11.46875 -1.9375 C 11.039062 -1.320312 10.4375 -0.800781 9.65625 -0.375 C 8.882812 0.0390625 8.054688 0.25 7.171875 0.25 C 6.015625 0.25 4.96875 -0.046875 4.03125 -0.640625 C 3.09375 -1.234375 2.351562 -2.0625 1.8125 -3.125 C 1.269531 -4.1875 1 -5.382812 1 -6.71875 C 1 -8.039062 1.265625 -9.234375 1.796875 -10.296875 C 2.335938 -11.359375 3.070312 -12.1875 4 -12.78125 C 4.9375 -13.382812 5.96875 -13.6875 7.09375 -13.6875 C 8 -13.6875 8.832031 -13.5 9.59375 -13.125 C 10.363281 -12.75 10.988281 -12.265625 11.46875 -11.671875 L 11.46875 -17.671875 C 11.46875 -18.023438 11.578125 -18.316406 11.796875 -18.546875 C 12.015625 -18.773438 12.300781 -18.890625 12.65625 -18.890625 Z M 7.453125 -1.984375 C 8.253906 -1.984375 8.960938 -2.1875 9.578125 -2.59375 C 10.203125 -3.007812 10.6875 -3.570312 11.03125 -4.28125 C 11.382812 -5 11.5625 -5.8125 11.5625 -6.71875 C 11.5625 -7.601562 11.382812 -8.40625 11.03125 -9.125 C 10.6875 -9.851562 10.203125 -10.421875 9.578125 -10.828125 C 8.960938 -11.234375 8.253906 -11.4375 7.453125 -11.4375 C 6.648438 -11.4375 5.9375 -11.234375 5.3125 -10.828125 C 4.695312 -10.421875 4.210938 -9.851562 3.859375 -9.125 C 3.515625 -8.40625 3.34375 -7.601562 3.34375 -6.71875 C 3.34375 -5.8125 3.515625 -5 3.859375 -4.28125 C 4.210938 -3.570312 4.695312 -3.007812 5.3125 -2.59375 C 5.9375 -2.1875 6.648438 -1.984375 7.453125 -1.984375 Z M 7.453125 -1.984375 "/></g></g></g><g fill="#1ed660" fill-opacity="1"><g transform="translate(195.337777, 303.847305)"><g><path d="M 12.65625 -18.890625 C 13.019531 -18.890625 13.316406 -18.773438 13.546875 -18.546875 C 13.773438 -18.316406 13.890625 -18.023438 13.890625 -17.671875 L 13.890625 -1.21875 C 13.890625 -0.882812 13.773438 -0.597656 13.546875 -0.359375 C 13.316406 -0.117188 13.019531 0 12.65625 0 C 12.300781 0 12.015625 -0.113281 11.796875 -0.34375 C 11.578125 -0.570312 11.46875 -0.863281 11.46875 -1.21875 L 11.46875 -1.9375 C 11.039062 -1.320312 10.4375 -0.800781 9.65625 -0.375 C 8.882812 0.0390625 8.054688 0.25 7.171875 0.25 C 6.015625 0.25 4.96875 -0.046875 4.03125 -0.640625 C 3.09375 -1.234375 2.351562 -2.0625 1.8125 -3.125 C 1.269531 -4.1875 1 -5.382812 1 -6.71875 C 1 -8.039062 1.265625 -9.234375 1.796875 -10.296875 C 2.335938 -11.359375 3.070312 -12.1875 4 -12.78125 C 4.9375 -13.382812 5.96875 -13.6875 7.09375 -13.6875 C 8 -13.6875 8.832031 -13.5 9.59375 -13.125 C 10.363281 -12.75 10.988281 -12.265625 11.46875 -11.671875 L 11.46875 -17.671875 C 11.46875 -18.023438 11.578125 -18.316406 11.796875 -18.546875 C 12.015625 -18.773438 12.300781 -18.890625 12.65625 -18.890625 Z M 7.453125 -1.984375 C 8.253906 -1.984375 8.960938 -2.1875 9.578125 -2.59375 C 10.203125 -3.007812 10.6875 -3.570312 11.03125 -4.28125 C 11.382812 -5 11.5625 -5.8125 11.5625 -6.71875 C 11.5625 -7.601562 11.382812 -8.40625 11.03125 -9.125 C 10.6875 -9.851562 10.203125 -10.421875 9.578125 -10.828125 C 8.960938 -11.234375 8.253906 -11.4375 7.453125 -11.4375 C 6.648438 -11.4375 5.9375 -11.234375 5.3125 -10.828125 C 4.695312 -10.421875 4.210938 -9.851562 3.859375 -9.125 C 3.515625 -8.40625 3.34375 -7.601562 3.34375 -6.71875 C 3.34375 -5.8125 3.515625 -5 3.859375 -4.28125 C 4.210938 -3.570312 4.695312 -3.007812 5.3125 -2.59375 C 5.9375 -2.1875 6.648438 -1.984375 7.453125 -1.984375 Z M 7.453125 -1.984375 "/></g></g></g><g fill="#1ed660" fill-opacity="1"><g transform="translate(211.00912, 303.847305)"><g><path d="M 11.765625 -13.5 C 12.128906 -13.5 12.425781 -13.378906 12.65625 -13.140625 C 12.882812 -12.910156 13 -12.625 13 -12.28125 L 13 -1.25 C 13 0.875 12.410156 2.460938 11.234375 3.515625 C 10.054688 4.578125 8.507812 5.109375 6.59375 5.109375 C 5.957031 5.109375 5.332031 5.046875 4.71875 4.921875 C 4.101562 4.804688 3.601562 4.644531 3.21875 4.4375 C 2.582031 4.15625 2.265625 3.765625 2.265625 3.265625 C 2.265625 3.179688 2.285156 3.070312 2.328125 2.9375 C 2.421875 2.644531 2.5625 2.421875 2.75 2.265625 C 2.9375 2.117188 3.148438 2.046875 3.390625 2.046875 C 3.523438 2.046875 3.65625 2.070312 3.78125 2.125 C 4.300781 2.351562 4.765625 2.535156 5.171875 2.671875 C 5.585938 2.816406 6.066406 2.890625 6.609375 2.890625 C 9.242188 2.890625 10.5625 1.535156 10.5625 -1.171875 L 10.5625 -1.6875 C 10.101562 -1.070312 9.507812 -0.59375 8.78125 -0.25 C 8.0625 0.0820312 7.238281 0.25 6.3125 0.25 C 4.894531 0.25 3.789062 -0.195312 3 -1.09375 C 2.207031 -2 1.8125 -3.179688 1.8125 -4.640625 L 1.8125 -12.28125 C 1.8125 -12.632812 1.921875 -12.925781 2.140625 -13.15625 C 2.359375 -13.382812 2.648438 -13.5 3.015625 -13.5 C 3.367188 -13.5 3.660156 -13.378906 3.890625 -13.140625 C 4.117188 -12.910156 4.234375 -12.625 4.234375 -12.28125 L 4.234375 -5.28125 C 4.234375 -4.15625 4.476562 -3.320312 4.96875 -2.78125 C 5.46875 -2.25 6.21875 -1.984375 7.21875 -1.984375 C 8.195312 -1.984375 9 -2.289062 9.625 -2.90625 C 10.25 -3.519531 10.5625 -4.3125 10.5625 -5.28125 L 10.5625 -12.28125 C 10.5625 -12.632812 10.671875 -12.925781 10.890625 -13.15625 C 11.117188 -13.382812 11.410156 -13.5 11.765625 -13.5 Z M 11.765625 -13.5 "/></g></g></g><g fill="#1ed660" fill-opacity="1"><g transform="translate(79.582169, 339.097303)"><g><path d="M 8.53125 -13.609375 C 9.6875 -13.609375 10.734375 -13.3125 11.671875 -12.71875 C 12.609375 -12.132812 13.34375 -11.316406 13.875 -10.265625 C 14.414062 -9.210938 14.6875 -8.019531 14.6875 -6.6875 C 14.6875 -5.363281 14.414062 -4.175781 13.875 -3.125 C 13.34375 -2.082031 12.609375 -1.257812 11.671875 -0.65625 C 10.734375 -0.0625 9.703125 0.234375 8.578125 0.234375 C 7.691406 0.234375 6.863281 0.0390625 6.09375 -0.34375 C 5.332031 -0.738281 4.710938 -1.21875 4.234375 -1.78125 L 4.234375 3.875 C 4.234375 4.21875 4.117188 4.507812 3.890625 4.75 C 3.660156 4.988281 3.367188 5.109375 3.015625 5.109375 C 2.671875 5.109375 2.382812 4.992188 2.15625 4.765625 C 1.925781 4.535156 1.8125 4.238281 1.8125 3.875 L 1.8125 -12.171875 C 1.8125 -12.535156 1.921875 -12.832031 2.140625 -13.0625 C 2.359375 -13.300781 2.648438 -13.421875 3.015625 -13.421875 C 3.367188 -13.421875 3.660156 -13.300781 3.890625 -13.0625 C 4.117188 -12.832031 4.234375 -12.535156 4.234375 -12.171875 L 4.234375 -11.4375 C 4.640625 -12.03125 5.234375 -12.539062 6.015625 -12.96875 C 6.804688 -13.394531 7.644531 -13.609375 8.53125 -13.609375 Z M 8.25 -2.015625 C 9.03125 -2.015625 9.734375 -2.21875 10.359375 -2.625 C 10.992188 -3.039062 11.484375 -3.597656 11.828125 -4.296875 C 12.179688 -5.003906 12.359375 -5.800781 12.359375 -6.6875 C 12.359375 -7.570312 12.179688 -8.367188 11.828125 -9.078125 C 11.484375 -9.785156 10.992188 -10.34375 10.359375 -10.75 C 9.734375 -11.15625 9.03125 -11.359375 8.25 -11.359375 C 7.445312 -11.359375 6.726562 -11.15625 6.09375 -10.75 C 5.46875 -10.351562 4.976562 -9.796875 4.625 -9.078125 C 4.28125 -8.367188 4.109375 -7.570312 4.109375 -6.6875 C 4.109375 -5.800781 4.28125 -5 4.625 -4.28125 C 4.976562 -3.570312 5.46875 -3.015625 6.09375 -2.609375 C 6.726562 -2.210938 7.445312 -2.015625 8.25 -2.015625 Z M 8.25 -2.015625 "/></g></g></g><g fill="#1ed660" fill-opacity="1"><g transform="translate(95.253513, 339.097303)"><g><path d="M 4.4375 -1.21875 C 4.4375 -0.882812 4.316406 -0.597656 4.078125 -0.359375 C 3.847656 -0.117188 3.5625 0 3.21875 0 C 2.875 0 2.585938 -0.117188 2.359375 -0.359375 C 2.128906 -0.597656 2.015625 -0.882812 2.015625 -1.21875 L 2.015625 -17.671875 C 2.015625 -18.003906 2.132812 -18.289062 2.375 -18.53125 C 2.613281 -18.769531 2.90625 -18.890625 3.25 -18.890625 C 3.582031 -18.890625 3.863281 -18.769531 4.09375 -18.53125 C 4.320312 -18.289062 4.4375 -18.003906 4.4375 -17.671875 Z M 4.4375 -1.21875 "/></g></g></g><g fill="#1ed660" fill-opacity="1"><g transform="translate(101.710921, 339.097303)"><g><path d="M 12.65625 -13.5625 C 13.019531 -13.5625 13.316406 -13.445312 13.546875 -13.21875 C 13.773438 -12.988281 13.890625 -12.6875 13.890625 -12.3125 L 13.890625 -1.21875 C 13.890625 -0.882812 13.773438 -0.597656 13.546875 -0.359375 C 13.316406 -0.117188 13.019531 0 12.65625 0 C 12.300781 0 12.015625 -0.113281 11.796875 -0.34375 C 11.578125 -0.570312 11.46875 -0.863281 11.46875 -1.21875 L 11.46875 -1.890625 C 11.019531 -1.296875 10.410156 -0.789062 9.640625 -0.375 C 8.878906 0.0390625 8.054688 0.25 7.171875 0.25 C 6.015625 0.25 4.960938 -0.046875 4.015625 -0.640625 C 3.078125 -1.234375 2.335938 -2.0625 1.796875 -3.125 C 1.265625 -4.1875 1 -5.382812 1 -6.71875 C 1 -8.039062 1.265625 -9.234375 1.796875 -10.296875 C 2.335938 -11.359375 3.070312 -12.1875 4 -12.78125 C 4.9375 -13.382812 5.96875 -13.6875 7.09375 -13.6875 C 8 -13.6875 8.835938 -13.5 9.609375 -13.125 C 10.390625 -12.75 11.007812 -12.269531 11.46875 -11.6875 L 11.46875 -12.3125 C 11.46875 -12.664062 11.578125 -12.960938 11.796875 -13.203125 C 12.015625 -13.441406 12.300781 -13.5625 12.65625 -13.5625 Z M 7.453125 -1.984375 C 8.253906 -1.984375 8.960938 -2.1875 9.578125 -2.59375 C 10.203125 -3.007812 10.6875 -3.570312 11.03125 -4.28125 C 11.382812 -5 11.5625 -5.8125 11.5625 -6.71875 C 11.5625 -7.601562 11.382812 -8.398438 11.03125 -9.109375 C 10.6875 -9.828125 10.203125 -10.394531 9.578125 -10.8125 C 8.960938 -11.226562 8.253906 -11.4375 7.453125 -11.4375 C 6.648438 -11.4375 5.9375 -11.234375 5.3125 -10.828125 C 4.695312 -10.421875 4.210938 -9.859375 3.859375 -9.140625 C 3.515625 -8.421875 3.34375 -7.613281 3.34375 -6.71875 C 3.34375 -5.8125 3.515625 -5 3.859375 -4.28125 C 4.210938 -3.570312 4.695312 -3.007812 5.3125 -2.59375 C 5.9375 -2.1875 6.648438 -1.984375 7.453125 -1.984375 Z M 7.453125 -1.984375 "/></g></g></g><g fill="#1ed660" fill-opacity="1"><g transform="translate(117.382265, 339.097303)"><g><path d="M 11.765625 -13.5 C 12.128906 -13.5 12.425781 -13.378906 12.65625 -13.140625 C 12.882812 -12.910156 13 -12.625 13 -12.28125 L 13 -1.25 C 13 0.875 12.410156 2.460938 11.234375 3.515625 C 10.054688 4.578125 8.507812 5.109375 6.59375 5.109375 C 5.957031 5.109375 5.332031 5.046875 4.71875 4.921875 C 4.101562 4.804688 3.601562 4.644531 3.21875 4.4375 C 2.582031 4.15625 2.265625 3.765625 2.265625 3.265625 C 2.265625 3.179688 2.285156 3.070312 2.328125 2.9375 C 2.421875 2.644531 2.5625 2.421875 2.75 2.265625 C 2.9375 2.117188 3.148438 2.046875 3.390625 2.046875 C 3.523438 2.046875 3.65625 2.070312 3.78125 2.125 C 4.300781 2.351562 4.765625 2.535156 5.171875 2.671875 C 5.585938 2.816406 6.066406 2.890625 6.609375 2.890625 C 9.242188 2.890625 10.5625 1.535156 10.5625 -1.171875 L 10.5625 -1.6875 C 10.101562 -1.070312 9.507812 -0.59375 8.78125 -0.25 C 8.0625 0.0820312 7.238281 0.25 6.3125 0.25 C 4.894531 0.25 3.789062 -0.195312 3 -1.09375 C 2.207031 -2 1.8125 -3.179688 1.8125 -4.640625 L 1.8125 -12.28125 C 1.8125 -12.632812 1.921875 -12.925781 2.140625 -13.15625 C 2.359375 -13.382812 2.648438 -13.5 3.015625 -13.5 C 3.367188 -13.5 3.660156 -13.378906 3.890625 -13.140625 C 4.117188 -12.910156 4.234375 -12.625 4.234375 -12.28125 L 4.234375 -5.28125 C 4.234375 -4.15625 4.476562 -3.320312 4.96875 -2.78125 C 5.46875 -2.25 6.21875 -1.984375 7.21875 -1.984375 C 8.195312 -1.984375 9 -2.289062 9.625 -2.90625 C 10.25 -3.519531 10.5625 -4.3125 10.5625 -5.28125 L 10.5625 -12.28125 C 10.5625 -12.632812 10.671875 -12.925781 10.890625 -13.15625 C 11.117188 -13.382812 11.410156 -13.5 11.765625 -13.5 Z M 11.765625 -13.5 "/></g></g></g><g fill="#1ed660" fill-opacity="1"><g transform="translate(132.160294, 339.097303)"><g><path d="M 4.4375 -1.21875 C 4.4375 -0.882812 4.316406 -0.597656 4.078125 -0.359375 C 3.847656 -0.117188 3.5625 0 3.21875 0 C 2.875 0 2.585938 -0.117188 2.359375 -0.359375 C 2.128906 -0.597656 2.015625 -0.882812 2.015625 -1.21875 L 2.015625 -17.671875 C 2.015625 -18.003906 2.132812 -18.289062 2.375 -18.53125 C 2.613281 -18.769531 2.90625 -18.890625 3.25 -18.890625 C 3.582031 -18.890625 3.863281 -18.769531 4.09375 -18.53125 C 4.320312 -18.289062 4.4375 -18.003906 4.4375 -17.671875 Z M 4.4375 -1.21875 "/></g></g></g><g fill="#1ed660" fill-opacity="1"><g transform="translate(138.617703, 339.097303)"><g><path d="M 4.109375 -1.21875 C 4.109375 -0.882812 3.992188 -0.597656 3.765625 -0.359375 C 3.535156 -0.117188 3.242188 0 2.890625 0 C 2.546875 0 2.257812 -0.117188 2.03125 -0.359375 C 1.800781 -0.597656 1.6875 -0.882812 1.6875 -1.21875 L 1.6875 -12.28125 C 1.6875 -12.625 1.800781 -12.910156 2.03125 -13.140625 C 2.257812 -13.378906 2.546875 -13.5 2.890625 -13.5 C 3.242188 -13.5 3.535156 -13.378906 3.765625 -13.140625 C 3.992188 -12.910156 4.109375 -12.625 4.109375 -12.28125 Z M 2.890625 -15.1875 C 2.398438 -15.1875 2.046875 -15.273438 1.828125 -15.453125 C 1.617188 -15.640625 1.515625 -15.925781 1.515625 -16.3125 L 1.515625 -16.71875 C 1.515625 -17.125 1.628906 -17.410156 1.859375 -17.578125 C 2.085938 -17.753906 2.441406 -17.84375 2.921875 -17.84375 C 3.390625 -17.84375 3.726562 -17.753906 3.9375 -17.578125 C 4.15625 -17.398438 4.265625 -17.113281 4.265625 -16.71875 L 4.265625 -16.3125 C 4.265625 -15.90625 4.15625 -15.613281 3.9375 -15.4375 C 3.71875 -15.269531 3.367188 -15.1875 2.890625 -15.1875 Z M 2.890625 -15.1875 "/></g></g></g><g fill="#1ed660" fill-opacity="1"><g transform="translate(144.411503, 339.097303)"><g><path d="M 1.046875 -2.09375 C 0.890625 -2.332031 0.8125 -2.5625 0.8125 -2.78125 C 0.8125 -3.125 0.992188 -3.414062 1.359375 -3.65625 C 1.523438 -3.769531 1.71875 -3.828125 1.9375 -3.828125 C 2.25 -3.828125 2.53125 -3.703125 2.78125 -3.453125 C 3.289062 -2.867188 3.835938 -2.429688 4.421875 -2.140625 C 5.015625 -1.847656 5.71875 -1.703125 6.53125 -1.703125 C 7.175781 -1.722656 7.742188 -1.875 8.234375 -2.15625 C 8.734375 -2.4375 8.984375 -2.890625 8.984375 -3.515625 C 8.984375 -4.097656 8.734375 -4.539062 8.234375 -4.84375 C 7.734375 -5.15625 7 -5.4375 6.03125 -5.6875 C 5.070312 -5.945312 4.273438 -6.21875 3.640625 -6.5 C 3.015625 -6.78125 2.484375 -7.1875 2.046875 -7.71875 C 1.617188 -8.257812 1.40625 -8.960938 1.40625 -9.828125 C 1.40625 -10.597656 1.617188 -11.269531 2.046875 -11.84375 C 2.484375 -12.425781 3.0625 -12.878906 3.78125 -13.203125 C 4.507812 -13.523438 5.300781 -13.6875 6.15625 -13.6875 C 6.96875 -13.6875 7.773438 -13.53125 8.578125 -13.21875 C 9.390625 -12.914062 10.050781 -12.453125 10.5625 -11.828125 C 10.769531 -11.585938 10.875 -11.335938 10.875 -11.078125 C 10.875 -10.804688 10.738281 -10.546875 10.46875 -10.296875 C 10.300781 -10.140625 10.085938 -10.0625 9.828125 -10.0625 C 9.523438 -10.0625 9.28125 -10.160156 9.09375 -10.359375 C 8.726562 -10.773438 8.285156 -11.09375 7.765625 -11.3125 C 7.253906 -11.53125 6.679688 -11.640625 6.046875 -11.640625 C 5.398438 -11.640625 4.851562 -11.503906 4.40625 -11.234375 C 3.957031 -10.972656 3.734375 -10.53125 3.734375 -9.90625 C 3.742188 -9.3125 4 -8.867188 4.5 -8.578125 C 5.007812 -8.285156 5.78125 -8.003906 6.8125 -7.734375 C 7.71875 -7.492188 8.46875 -7.238281 9.0625 -6.96875 C 9.65625 -6.695312 10.15625 -6.289062 10.5625 -5.75 C 10.976562 -5.21875 11.1875 -4.519531 11.1875 -3.65625 C 11.1875 -2.851562 10.953125 -2.15625 10.484375 -1.5625 C 10.023438 -0.976562 9.425781 -0.53125 8.6875 -0.21875 C 7.945312 0.09375 7.160156 0.25 6.328125 0.25 C 5.253906 0.25 4.257812 0.0625 3.34375 -0.3125 C 2.4375 -0.6875 1.671875 -1.28125 1.046875 -2.09375 Z M 1.046875 -2.09375 "/></g></g></g><g fill="#1ed660" fill-opacity="1"><g transform="translate(156.58615, 339.097303)"><g><path d="M 5.4375 -11 L 5.4375 -3.390625 C 5.4375 -2.546875 5.820312 -2.125 6.59375 -2.125 C 6.707031 -2.125 6.863281 -2.148438 7.0625 -2.203125 C 7.269531 -2.265625 7.4375 -2.296875 7.5625 -2.296875 C 7.78125 -2.296875 7.960938 -2.203125 8.109375 -2.015625 C 8.265625 -1.828125 8.34375 -1.585938 8.34375 -1.296875 C 8.34375 -0.941406 8.140625 -0.632812 7.734375 -0.375 C 7.328125 -0.125 6.867188 0 6.359375 0 C 5.796875 0 5.28125 -0.0546875 4.8125 -0.171875 C 4.34375 -0.296875 3.925781 -0.597656 3.5625 -1.078125 C 3.195312 -1.566406 3.015625 -2.304688 3.015625 -3.296875 L 3.015625 -11 L 1.53125 -11 C 1.207031 -11 0.9375 -11.101562 0.71875 -11.3125 C 0.507812 -11.53125 0.40625 -11.800781 0.40625 -12.125 C 0.40625 -12.445312 0.507812 -12.707031 0.71875 -12.90625 C 0.9375 -13.113281 1.207031 -13.21875 1.53125 -13.21875 L 3.015625 -13.21875 L 3.015625 -15.375 C 3.015625 -15.707031 3.128906 -15.992188 3.359375 -16.234375 C 3.585938 -16.472656 3.878906 -16.59375 4.234375 -16.59375 C 4.578125 -16.59375 4.863281 -16.472656 5.09375 -16.234375 C 5.320312 -15.992188 5.4375 -15.707031 5.4375 -15.375 L 5.4375 -13.21875 L 7.5625 -13.21875 C 7.882812 -13.21875 8.148438 -13.113281 8.359375 -12.90625 C 8.578125 -12.695312 8.6875 -12.429688 8.6875 -12.109375 C 8.6875 -11.773438 8.578125 -11.503906 8.359375 -11.296875 C 8.148438 -11.097656 7.882812 -11 7.5625 -11 Z M 5.4375 -11 "/></g></g></g><g fill="#1ed660" fill-opacity="1"><g transform="translate(166.285029, 339.097303)"><g/></g></g><g fill="#1ed660" fill-opacity="1"><g transform="translate(173.355005, 339.097303)"><g><path d="M 13 -13.5625 C 13.351562 -13.5625 13.644531 -13.445312 13.875 -13.21875 C 14.101562 -12.988281 14.21875 -12.6875 14.21875 -12.3125 L 14.21875 -1.078125 C 14.21875 0.304688 13.921875 1.460938 13.328125 2.390625 C 12.742188 3.316406 11.953125 4 10.953125 4.4375 C 9.953125 4.882812 8.820312 5.109375 7.5625 5.109375 C 6.875 5.109375 6.070312 4.988281 5.15625 4.75 C 4.25 4.507812 3.671875 4.265625 3.421875 4.015625 C 2.890625 3.734375 2.625 3.390625 2.625 2.984375 C 2.625 2.878906 2.660156 2.742188 2.734375 2.578125 C 2.921875 2.148438 3.234375 1.9375 3.671875 1.9375 C 3.898438 1.9375 4.140625 1.988281 4.390625 2.09375 C 5.753906 2.625 6.816406 2.890625 7.578125 2.890625 C 8.941406 2.890625 9.984375 2.5625 10.703125 1.90625 C 11.429688 1.25 11.796875 0.347656 11.796875 -0.796875 L 11.796875 -2.171875 C 11.441406 -1.503906 10.84375 -0.929688 10 -0.453125 C 9.15625 0.015625 8.265625 0.25 7.328125 0.25 C 6.148438 0.25 5.078125 -0.046875 4.109375 -0.640625 C 3.140625 -1.234375 2.378906 -2.0625 1.828125 -3.125 C 1.273438 -4.1875 1 -5.382812 1 -6.71875 C 1 -8.039062 1.273438 -9.234375 1.828125 -10.296875 C 2.378906 -11.359375 3.132812 -12.1875 4.09375 -12.78125 C 5.0625 -13.382812 6.125 -13.6875 7.28125 -13.6875 C 8.21875 -13.6875 9.085938 -13.472656 9.890625 -13.046875 C 10.703125 -12.617188 11.335938 -12.097656 11.796875 -11.484375 L 11.796875 -12.3125 C 11.796875 -12.664062 11.90625 -12.960938 12.125 -13.203125 C 12.34375 -13.441406 12.632812 -13.5625 13 -13.5625 Z M 7.609375 -1.984375 C 8.441406 -1.984375 9.179688 -2.179688 9.828125 -2.578125 C 10.472656 -2.984375 10.976562 -3.546875 11.34375 -4.265625 C 11.707031 -4.992188 11.890625 -5.8125 11.890625 -6.71875 C 11.890625 -7.613281 11.707031 -8.421875 11.34375 -9.140625 C 10.976562 -9.859375 10.472656 -10.421875 9.828125 -10.828125 C 9.179688 -11.234375 8.441406 -11.4375 7.609375 -11.4375 C 6.796875 -11.4375 6.0625 -11.234375 5.40625 -10.828125 C 4.757812 -10.421875 4.253906 -9.851562 3.890625 -9.125 C 3.523438 -8.40625 3.34375 -7.601562 3.34375 -6.71875 C 3.34375 -5.832031 3.523438 -5.023438 3.890625 -4.296875 C 4.253906 -3.578125 4.757812 -3.007812 5.40625 -2.59375 C 6.0625 -2.1875 6.796875 -1.984375 7.609375 -1.984375 Z M 7.609375 -1.984375 "/></g></g></g><g fill="#1ed660" fill-opacity="1"><g transform="translate(189.358159, 339.097303)"><g><path d="M 13.5625 -7.203125 C 13.539062 -6.890625 13.410156 -6.628906 13.171875 -6.421875 C 12.929688 -6.210938 12.648438 -6.109375 12.328125 -6.109375 L 3.34375 -6.109375 C 3.457031 -4.859375 3.925781 -3.859375 4.75 -3.109375 C 5.582031 -2.359375 6.59375 -1.984375 7.78125 -1.984375 C 8.601562 -1.984375 9.269531 -2.101562 9.78125 -2.34375 C 10.289062 -2.582031 10.738281 -2.890625 11.125 -3.265625 C 11.382812 -3.421875 11.632812 -3.5 11.875 -3.5 C 12.164062 -3.5 12.40625 -3.394531 12.59375 -3.1875 C 12.789062 -2.988281 12.890625 -2.75 12.890625 -2.46875 C 12.890625 -2.113281 12.71875 -1.789062 12.375 -1.5 C 11.882812 -1.007812 11.226562 -0.59375 10.40625 -0.25 C 9.59375 0.0820312 8.765625 0.25 7.921875 0.25 C 6.535156 0.25 5.316406 -0.0351562 4.265625 -0.609375 C 3.222656 -1.191406 2.414062 -2 1.84375 -3.03125 C 1.28125 -4.070312 1 -5.25 1 -6.5625 C 1 -7.988281 1.289062 -9.242188 1.875 -10.328125 C 2.457031 -11.410156 3.226562 -12.238281 4.1875 -12.8125 C 5.15625 -13.394531 6.191406 -13.6875 7.296875 -13.6875 C 8.390625 -13.6875 9.410156 -13.40625 10.359375 -12.84375 C 11.316406 -12.28125 12.082031 -11.503906 12.65625 -10.515625 C 13.238281 -9.523438 13.539062 -8.421875 13.5625 -7.203125 Z M 7.296875 -11.4375 C 6.347656 -11.4375 5.523438 -11.164062 4.828125 -10.625 C 4.128906 -10.09375 3.671875 -9.265625 3.453125 -8.140625 L 10.984375 -8.140625 L 10.984375 -8.34375 C 10.890625 -9.25 10.484375 -9.988281 9.765625 -10.5625 C 9.046875 -11.144531 8.222656 -11.4375 7.296875 -11.4375 Z M 7.296875 -11.4375 "/></g></g></g><g fill="#1ed660" fill-opacity="1"><g transform="translate(203.906471, 339.097303)"><g><path d="M 8.625 -13.6875 C 11.6875 -13.6875 13.21875 -11.847656 13.21875 -8.171875 L 13.21875 -1.21875 C 13.21875 -0.882812 13.101562 -0.597656 12.875 -0.359375 C 12.644531 -0.117188 12.351562 0 12 0 C 11.65625 0 11.367188 -0.117188 11.140625 -0.359375 C 10.910156 -0.597656 10.796875 -0.882812 10.796875 -1.21875 L 10.796875 -8.140625 C 10.796875 -9.148438 10.566406 -9.953125 10.109375 -10.546875 C 9.648438 -11.140625 8.898438 -11.4375 7.859375 -11.4375 C 7.179688 -11.4375 6.566406 -11.285156 6.015625 -10.984375 C 5.460938 -10.691406 5.023438 -10.289062 4.703125 -9.78125 C 4.390625 -9.28125 4.234375 -8.734375 4.234375 -8.140625 L 4.234375 -1.21875 C 4.234375 -0.882812 4.117188 -0.597656 3.890625 -0.359375 C 3.660156 -0.117188 3.367188 0 3.015625 0 C 2.648438 0 2.359375 -0.113281 2.140625 -0.34375 C 1.921875 -0.570312 1.8125 -0.863281 1.8125 -1.21875 L 1.8125 -12.15625 C 1.8125 -12.488281 1.925781 -12.773438 2.15625 -13.015625 C 2.382812 -13.253906 2.671875 -13.375 3.015625 -13.375 C 3.367188 -13.375 3.660156 -13.253906 3.890625 -13.015625 C 4.117188 -12.773438 4.234375 -12.488281 4.234375 -12.15625 L 4.234375 -11.265625 C 4.679688 -11.941406 5.300781 -12.515625 6.09375 -12.984375 C 6.882812 -13.453125 7.726562 -13.6875 8.625 -13.6875 Z M 8.625 -13.6875 "/></g></g></g><g fill="#1ed660" fill-opacity="1"><g transform="translate(218.939727, 339.097303)"><g><path d="M 13.5625 -7.203125 C 13.539062 -6.890625 13.410156 -6.628906 13.171875 -6.421875 C 12.929688 -6.210938 12.648438 -6.109375 12.328125 -6.109375 L 3.34375 -6.109375 C 3.457031 -4.859375 3.925781 -3.859375 4.75 -3.109375 C 5.582031 -2.359375 6.59375 -1.984375 7.78125 -1.984375 C 8.601562 -1.984375 9.269531 -2.101562 9.78125 -2.34375 C 10.289062 -2.582031 10.738281 -2.890625 11.125 -3.265625 C 11.382812 -3.421875 11.632812 -3.5 11.875 -3.5 C 12.164062 -3.5 12.40625 -3.394531 12.59375 -3.1875 C 12.789062 -2.988281 12.890625 -2.75 12.890625 -2.46875 C 12.890625 -2.113281 12.71875 -1.789062 12.375 -1.5 C 11.882812 -1.007812 11.226562 -0.59375 10.40625 -0.25 C 9.59375 0.0820312 8.765625 0.25 7.921875 0.25 C 6.535156 0.25 5.316406 -0.0351562 4.265625 -0.609375 C 3.222656 -1.191406 2.414062 -2 1.84375 -3.03125 C 1.28125 -4.070312 1 -5.25 1 -6.5625 C 1 -7.988281 1.289062 -9.242188 1.875 -10.328125 C 2.457031 -11.410156 3.226562 -12.238281 4.1875 -12.8125 C 5.15625 -13.394531 6.191406 -13.6875 7.296875 -13.6875 C 8.390625 -13.6875 9.410156 -13.40625 10.359375 -12.84375 C 11.316406 -12.28125 12.082031 -11.503906 12.65625 -10.515625 C 13.238281 -9.523438 13.539062 -8.421875 13.5625 -7.203125 Z M 7.296875 -11.4375 C 6.347656 -11.4375 5.523438 -11.164062 4.828125 -10.625 C 4.128906 -10.09375 3.671875 -9.265625 3.453125 -8.140625 L 10.984375 -8.140625 L 10.984375 -8.34375 C 10.890625 -9.25 10.484375 -9.988281 9.765625 -10.5625 C 9.046875 -11.144531 8.222656 -11.4375 7.296875 -11.4375 Z M 7.296875 -11.4375 "/></g></g></g><g fill="#1ed660" fill-opacity="1"><g transform="translate(233.488039, 339.097303)"><g><path d="M 8.46875 -13.6875 C 8.914062 -13.6875 9.300781 -13.570312 9.625 -13.34375 C 9.945312 -13.113281 10.109375 -12.828125 10.109375 -12.484375 C 10.109375 -12.078125 10 -11.765625 9.78125 -11.546875 C 9.570312 -11.335938 9.316406 -11.234375 9.015625 -11.234375 C 8.859375 -11.234375 8.628906 -11.285156 8.328125 -11.390625 C 7.960938 -11.503906 7.679688 -11.5625 7.484375 -11.5625 C 6.953125 -11.5625 6.4375 -11.378906 5.9375 -11.015625 C 5.4375 -10.648438 5.023438 -10.144531 4.703125 -9.5 C 4.390625 -8.863281 4.234375 -8.15625 4.234375 -7.375 L 4.234375 -1.21875 C 4.234375 -0.882812 4.117188 -0.597656 3.890625 -0.359375 C 3.660156 -0.117188 3.367188 0 3.015625 0 C 2.648438 0 2.359375 -0.113281 2.140625 -0.34375 C 1.921875 -0.570312 1.8125 -0.863281 1.8125 -1.21875 L 1.8125 -12.15625 C 1.8125 -12.488281 1.925781 -12.773438 2.15625 -13.015625 C 2.382812 -13.253906 2.671875 -13.375 3.015625 -13.375 C 3.367188 -13.375 3.660156 -13.253906 3.890625 -13.015625 C 4.117188 -12.773438 4.234375 -12.488281 4.234375 -12.15625 L 4.234375 -10.84375 C 4.609375 -11.6875 5.171875 -12.363281 5.921875 -12.875 C 6.671875 -13.394531 7.519531 -13.664062 8.46875 -13.6875 Z M 8.46875 -13.6875 "/></g></g></g><g fill="#1ed660" fill-opacity="1"><g transform="translate(244.029191, 339.097303)"><g><path d="M 12.65625 -13.5625 C 13.019531 -13.5625 13.316406 -13.445312 13.546875 -13.21875 C 13.773438 -12.988281 13.890625 -12.6875 13.890625 -12.3125 L 13.890625 -1.21875 C 13.890625 -0.882812 13.773438 -0.597656 13.546875 -0.359375 C 13.316406 -0.117188 13.019531 0 12.65625 0 C 12.300781 0 12.015625 -0.113281 11.796875 -0.34375 C 11.578125 -0.570312 11.46875 -0.863281 11.46875 -1.21875 L 11.46875 -1.890625 C 11.019531 -1.296875 10.410156 -0.789062 9.640625 -0.375 C 8.878906 0.0390625 8.054688 0.25 7.171875 0.25 C 6.015625 0.25 4.960938 -0.046875 4.015625 -0.640625 C 3.078125 -1.234375 2.335938 -2.0625 1.796875 -3.125 C 1.265625 -4.1875 1 -5.382812 1 -6.71875 C 1 -8.039062 1.265625 -9.234375 1.796875 -10.296875 C 2.335938 -11.359375 3.070312 -12.1875 4 -12.78125 C 4.9375 -13.382812 5.96875 -13.6875 7.09375 -13.6875 C 8 -13.6875 8.835938 -13.5 9.609375 -13.125 C 10.390625 -12.75 11.007812 -12.269531 11.46875 -11.6875 L 11.46875 -12.3125 C 11.46875 -12.664062 11.578125 -12.960938 11.796875 -13.203125 C 12.015625 -13.441406 12.300781 -13.5625 12.65625 -13.5625 Z M 7.453125 -1.984375 C 8.253906 -1.984375 8.960938 -2.1875 9.578125 -2.59375 C 10.203125 -3.007812 10.6875 -3.570312 11.03125 -4.28125 C 11.382812 -5 11.5625 -5.8125 11.5625 -6.71875 C 11.5625 -7.601562 11.382812 -8.398438 11.03125 -9.109375 C 10.6875 -9.828125 10.203125 -10.394531 9.578125 -10.8125 C 8.960938 -11.226562 8.253906 -11.4375 7.453125 -11.4375 C 6.648438 -11.4375 5.9375 -11.234375 5.3125 -10.828125 C 4.695312 -10.421875 4.210938 -9.859375 3.859375 -9.140625 C 3.515625 -8.421875 3.34375 -7.613281 3.34375 -6.71875 C 3.34375 -5.8125 3.515625 -5 3.859375 -4.28125 C 4.210938 -3.570312 4.695312 -3.007812 5.3125 -2.59375 C 5.9375 -2.1875 6.648438 -1.984375 7.453125 -1.984375 Z M 7.453125 -1.984375 "/></g></g></g><g fill="#1ed660" fill-opacity="1"><g transform="translate(259.700535, 339.097303)"><g><path d="M 5.4375 -11 L 5.4375 -3.390625 C 5.4375 -2.546875 5.820312 -2.125 6.59375 -2.125 C 6.707031 -2.125 6.863281 -2.148438 7.0625 -2.203125 C 7.269531 -2.265625 7.4375 -2.296875 7.5625 -2.296875 C 7.78125 -2.296875 7.960938 -2.203125 8.109375 -2.015625 C 8.265625 -1.828125 8.34375 -1.585938 8.34375 -1.296875 C 8.34375 -0.941406 8.140625 -0.632812 7.734375 -0.375 C 7.328125 -0.125 6.867188 0 6.359375 0 C 5.796875 0 5.28125 -0.0546875 4.8125 -0.171875 C 4.34375 -0.296875 3.925781 -0.597656 3.5625 -1.078125 C 3.195312 -1.566406 3.015625 -2.304688 3.015625 -3.296875 L 3.015625 -11 L 1.53125 -11 C 1.207031 -11 0.9375 -11.101562 0.71875 -11.3125 C 0.507812 -11.53125 0.40625 -11.800781 0.40625 -12.125 C 0.40625 -12.445312 0.507812 -12.707031 0.71875 -12.90625 C 0.9375 -13.113281 1.207031 -13.21875 1.53125 -13.21875 L 3.015625 -13.21875 L 3.015625 -15.375 C 3.015625 -15.707031 3.128906 -15.992188 3.359375 -16.234375 C 3.585938 -16.472656 3.878906 -16.59375 4.234375 -16.59375 C 4.578125 -16.59375 4.863281 -16.472656 5.09375 -16.234375 C 5.320312 -15.992188 5.4375 -15.707031 5.4375 -15.375 L 5.4375 -13.21875 L 7.5625 -13.21875 C 7.882812 -13.21875 8.148438 -13.113281 8.359375 -12.90625 C 8.578125 -12.695312 8.6875 -12.429688 8.6875 -12.109375 C 8.6875 -11.773438 8.578125 -11.503906 8.359375 -11.296875 C 8.148438 -11.097656 7.882812 -11 7.5625 -11 Z M 5.4375 -11 "/></g></g></g><g fill="#1ed660" fill-opacity="1"><g transform="translate(269.399414, 339.097303)"><g><path d="M 14.46875 -6.6875 C 14.46875 -5.363281 14.171875 -4.171875 13.578125 -3.109375 C 12.984375 -2.054688 12.171875 -1.234375 11.140625 -0.640625 C 10.109375 -0.046875 8.972656 0.25 7.734375 0.25 C 6.492188 0.25 5.359375 -0.046875 4.328125 -0.640625 C 3.296875 -1.234375 2.484375 -2.054688 1.890625 -3.109375 C 1.296875 -4.171875 1 -5.363281 1 -6.6875 C 1 -8.019531 1.296875 -9.21875 1.890625 -10.28125 C 2.484375 -11.351562 3.296875 -12.1875 4.328125 -12.78125 C 5.359375 -13.382812 6.492188 -13.6875 7.734375 -13.6875 C 8.972656 -13.6875 10.109375 -13.382812 11.140625 -12.78125 C 12.171875 -12.1875 12.984375 -11.351562 13.578125 -10.28125 C 14.171875 -9.21875 14.46875 -8.019531 14.46875 -6.6875 Z M 12.046875 -6.6875 C 12.046875 -7.601562 11.851562 -8.421875 11.46875 -9.140625 C 11.09375 -9.867188 10.578125 -10.429688 9.921875 -10.828125 C 9.265625 -11.234375 8.535156 -11.4375 7.734375 -11.4375 C 6.929688 -11.4375 6.203125 -11.234375 5.546875 -10.828125 C 4.890625 -10.429688 4.367188 -9.867188 3.984375 -9.140625 C 3.609375 -8.421875 3.421875 -7.601562 3.421875 -6.6875 C 3.421875 -5.789062 3.609375 -4.984375 3.984375 -4.265625 C 4.367188 -3.546875 4.890625 -2.984375 5.546875 -2.578125 C 6.203125 -2.179688 6.929688 -1.984375 7.734375 -1.984375 C 8.535156 -1.984375 9.265625 -2.179688 9.921875 -2.578125 C 10.578125 -2.984375 11.09375 -3.546875 11.46875 -4.265625 C 11.851562 -4.984375 12.046875 -5.789062 12.046875 -6.6875 Z M 12.046875 -6.6875 "/></g></g></g><g fill="#1ed660" fill-opacity="1"><g transform="translate(284.866572, 339.097303)"><g><path d="M 8.46875 -13.6875 C 8.914062 -13.6875 9.300781 -13.570312 9.625 -13.34375 C 9.945312 -13.113281 10.109375 -12.828125 10.109375 -12.484375 C 10.109375 -12.078125 10 -11.765625 9.78125 -11.546875 C 9.570312 -11.335938 9.316406 -11.234375 9.015625 -11.234375 C 8.859375 -11.234375 8.628906 -11.285156 8.328125 -11.390625 C 7.960938 -11.503906 7.679688 -11.5625 7.484375 -11.5625 C 6.953125 -11.5625 6.4375 -11.378906 5.9375 -11.015625 C 5.4375 -10.648438 5.023438 -10.144531 4.703125 -9.5 C 4.390625 -8.863281 4.234375 -8.15625 4.234375 -7.375 L 4.234375 -1.21875 C 4.234375 -0.882812 4.117188 -0.597656 3.890625 -0.359375 C 3.660156 -0.117188 3.367188 0 3.015625 0 C 2.648438 0 2.359375 -0.113281 2.140625 -0.34375 C 1.921875 -0.570312 1.8125 -0.863281 1.8125 -1.21875 L 1.8125 -12.15625 C 1.8125 -12.488281 1.925781 -12.773438 2.15625 -13.015625 C 2.382812 -13.253906 2.671875 -13.375 3.015625 -13.375 C 3.367188 -13.375 3.660156 -13.253906 3.890625 -13.015625 C 4.117188 -12.773438 4.234375 -12.488281 4.234375 -12.15625 L 4.234375 -10.84375 C 4.609375 -11.6875 5.171875 -12.363281 5.921875 -12.875 C 6.671875 -13.394531 7.519531 -13.664062 8.46875 -13.6875 Z M 8.46875 -13.6875 "/></g></g></g></svg>